<?xml version="1.0" standalone="no"?>
<!DOCTYPE svg PUBLIC "-//W3C//DTD SVG 20010904//EN"
 "http://www.w3.org/TR/2001/REC-SVG-20010904/DTD/svg10.dtd">
<svg version="1.0" xmlns="http://www.w3.org/2000/svg"
 width="720.000000pt" height="720.000000pt" viewBox="0 0 720.000000 720.000000"
 preserveAspectRatio="xMidYMid meet">
<metadata>
Created by potrace 1.11, written by Peter Selinger 2001-2013
</metadata>
<g transform="translate(0.000000,720.000000) scale(0.100000,-0.100000)"
fill="#000000" stroke="none">
<path d="M3400 6714 c-510 -42 -951 -177 -1357 -415 -731 -429 -1244 -1113
-1453 -1938 -85 -338 -110 -769 -65 -1131 132 -1059 793 -1974 1758 -2435 301
-144 604 -232 962 -281 177 -24 578 -25 757 -1 1078 143 1974 787 2432 1748
199 418 297 858 297 1339 0 629 -171 1198 -517 1720 -502 759 -1293 1252
-2207 1376 -106 14 -510 26 -607 18z m-370 -901 c68 -93 112 -183 118 -241 8
-88 -50 -225 -90 -210 -8 3 -20 26 -27 49 -7 24 -20 60 -28 79 -18 44 -26 31
-43 -67 -6 -40 -16 -75 -20 -78 -17 -10 -78 55 -100 107 -31 73 -25 160 17
249 38 83 99 179 113 179 6 0 32 -30 60 -67z m490 -232 c0 -48 -31 -176 -52
-214 -28 -50 -90 -95 -141 -104 -46 -7 -48 6 -11 78 14 28 24 53 21 55 -2 2
-29 -14 -59 -36 -31 -21 -58 -36 -62 -33 -13 13 -5 85 13 121 34 67 92 104
212 136 72 20 79 19 79 -3z m-1497 -84 c89 -42 134 -79 158 -132 20 -44 25
-120 9 -130 -6 -4 -32 12 -59 34 -27 23 -51 41 -55 41 -3 0 5 -29 19 -65 14
-38 20 -67 14 -70 -20 -13 -69 8 -113 46 -56 50 -76 108 -76 226 0 98 -1 98
103 50z m446 -8 c102 -47 161 -125 161 -210 0 -54 -16 -56 -70 -10 -28 24 -53
41 -56 39 -2 -3 6 -32 18 -66 13 -33 19 -64 15 -68 -4 -4 -24 -2 -45 4 -42 13
-95 60 -119 106 -16 30 -30 156 -25 214 3 31 6 33 30 27 15 -3 56 -20 91 -36z
m371 -227 c78 -78 100 -118 100 -184 0 -32 -28 -108 -41 -108 -4 0 -23 25 -41
55 -18 30 -36 55 -41 55 -5 0 -7 -30 -5 -66 4 -85 -9 -91 -66 -32 -55 57 -70
112 -55 194 14 73 47 164 61 164 6 0 45 -35 88 -78z m790 -29 c0 -55 -27 -160
-52 -204 -27 -49 -85 -89 -137 -96 -49 -7 -50 -1 -15 68 14 28 23 53 20 56 -3
3 -28 -11 -56 -31 -28 -20 -55 -34 -60 -31 -18 11 -10 71 16 123 31 62 80 95
193 129 42 12 79 22 84 22 4 1 7 -16 7 -36z m495 -19 c-18 -146 -54 -217 -131
-261 -43 -25 -94 -30 -94 -10 1 6 11 35 24 62 13 28 22 52 20 54 -2 2 -28 -12
-57 -32 -30 -21 -57 -37 -60 -37 -4 0 -7 20 -7 45 0 86 56 157 151 190 45 17
137 43 153 44 4 1 5 -24 1 -55z m-2498 5 c49 -23 95 -74 91 -98 -3 -13 -15
-15 -71 -13 -37 2 -67 1 -67 -1 0 -3 28 -22 62 -43 61 -37 61 -37 40 -55 -30
-24 -92 -33 -140 -20 -51 14 -102 55 -163 132 -47 58 -58 78 -41 80 4 0 39 9
77 19 94 25 158 25 212 -1z m1572 -66 c75 -149 91 -277 46 -368 -26 -54 -75
-105 -100 -105 -14 0 -25 42 -26 104 -1 89 -13 88 -58 -8 -44 -96 -53 -99 -86
-35 -48 91 -38 192 26 286 33 47 156 183 166 183 2 0 16 -26 32 -57z m-723
-93 c186 -74 246 -129 273 -250 11 -49 4 -110 -13 -110 -6 0 -40 23 -76 51
-77 60 -84 53 -41 -46 16 -39 27 -73 25 -77 -17 -27 -113 7 -167 60 -47 45
-71 90 -86 160 -14 65 -15 242 -1 242 5 0 44 -14 86 -30z m-419 -12 c52 -22
113 -82 113 -110 0 -4 -32 -8 -72 -10 l-71 -3 56 -38 c31 -20 57 -41 57 -46 0
-16 -62 -34 -112 -33 -34 1 -63 9 -94 27 -45 26 -154 148 -154 172 0 11 52 30
125 46 41 9 125 7 152 -5z m1702 -203 c3 -4 -18 -53 -48 -111 -63 -126 -124
-193 -195 -217 -72 -25 -176 -21 -176 6 0 6 25 37 56 68 31 31 55 62 53 67 -3
6 -33 1 -79 -14 -93 -29 -100 -30 -100 -1 1 39 35 101 79 140 70 63 129 78
290 72 63 -2 116 -7 120 -10z m361 -42 c2 -2 -13 -39 -35 -81 -50 -97 -105
-154 -167 -171 -47 -13 -118 -8 -118 8 0 5 21 32 46 60 25 28 42 51 36 51 -5
0 -35 -9 -67 -20 -32 -11 -60 -20 -63 -20 -2 0 -2 16 1 35 12 74 80 132 170
145 49 7 186 2 197 -7z m-2456 -67 c50 -15 86 -41 86 -61 0 -6 -27 -19 -60
-29 -34 -9 -59 -20 -56 -25 3 -4 33 -14 66 -20 33 -7 60 -15 60 -20 0 -13 -54
-59 -83 -70 -56 -22 -120 -13 -193 25 -38 19 -82 46 -99 60 l-30 25 30 24 c35
29 135 84 174 95 39 12 53 11 105 -4z m654 -101 c75 -23 191 -120 168 -142 -3
-4 -54 -15 -113 -25 -58 -9 -108 -20 -111 -23 -11 -11 14 -24 103 -55 126 -43
126 -43 91 -79 -68 -71 -214 -100 -319 -63 -104 37 -348 221 -327 247 16 19
210 114 276 135 72 23 163 25 232 5z m2057 -19 c37 -13 69 -27 72 -30 10 -10
-57 -75 -105 -103 -35 -21 -52 -24 -89 -20 -25 2 -52 12 -60 20 -14 14 -11 18
28 39 l44 23 -47 3 c-54 3 -61 17 -25 50 50 47 91 51 182 18z m-1506 -222
c-140 -392 -189 -578 -189 -721 0 -35 1 -35 32 -29 49 10 175 85 414 249 119
81 218 146 220 144 2 -2 -19 -37 -47 -78 -107 -157 -271 -295 -444 -374 -119
-54 -155 -95 -155 -179 0 -49 58 -346 92 -466 41 -150 99 -230 200 -275 56
-25 77 -29 228 -36 176 -8 258 -26 334 -72 38 -24 156 -135 156 -147 0 -10
-370 -107 -475 -125 -197 -34 -616 -37 -825 -5 -101 15 -441 90 -462 101 -22
12 -25 105 -5 132 20 27 232 180 291 210 112 57 198 58 279 2 31 -20 47 -24
101 -22 l64 2 -15 35 c-122 287 -171 480 -180 700 -14 351 72 598 350 1018 56
84 103 148 105 144 1 -5 -29 -99 -69 -208z m461 69 c9 -8 -71 -154 -105 -192
-22 -24 -54 -46 -82 -55 -54 -19 -72 -20 -108 -6 l-27 10 46 51 c26 29 45 53
43 56 -2 2 -32 -5 -66 -16 -56 -17 -63 -18 -68 -4 -10 25 35 99 77 128 21 15
60 30 87 35 44 8 192 3 203 -7z m557 -81 c40 -4 75 -11 79 -15 10 -10 -41
-124 -100 -223 -69 -117 -145 -187 -232 -214 -36 -11 -87 -20 -114 -20 -52 0
-110 17 -110 31 0 5 37 49 82 97 98 103 93 108 -56 62 -54 -16 -102 -30 -107
-30 -18 0 -8 68 17 118 31 62 118 144 176 166 83 31 223 42 365 28z m352 -141
c28 -18 51 -36 51 -40 0 -4 -28 -24 -62 -45 -55 -32 -69 -37 -111 -33 -32 3
-56 12 -70 25 l-21 21 28 11 c15 5 34 10 42 10 27 0 5 18 -31 24 -39 8 -43 16
-17 38 26 23 43 28 94 24 31 -2 63 -13 97 -35z m-2344 10 c22 -10 46 -25 54
-34 12 -15 10 -19 -20 -31 -19 -7 -49 -17 -66 -21 -49 -10 -40 -21 27 -35 33
-7 63 -18 67 -23 11 -17 -57 -65 -106 -76 -54 -11 -97 -4 -161 29 -56 28 -130
79 -130 88 0 10 106 77 160 101 56 25 122 26 175 2z m511 -129 c48 -25 91 -69
78 -81 -5 -4 -42 -14 -82 -21 -41 -6 -70 -16 -65 -21 4 -4 37 -18 72 -31 36
-13 66 -28 68 -35 7 -20 -82 -64 -141 -70 -49 -5 -64 -2 -118 25 -35 17 -94
57 -132 88 -78 65 -79 61 19 111 125 65 221 76 301 35z m1419 -702 c-3 -5 -19
-10 -35 -10 -16 0 -51 -4 -77 -9 -26 -5 -77 -15 -113 -21 -116 -22 -258 -59
-292 -76 l-32 -17 21 -17 c27 -22 109 -41 383 -90 79 -14 442 -87 525 -105 39
-8 104 -22 145 -31 41 -8 98 -21 125 -29 28 -7 93 -23 145 -35 119 -27 308
-80 425 -118 615 -203 974 -537 975 -910 0 -60 -4 -68 -104 -192 -384 -478
-878 -810 -1481 -996 -123 -38 -307 -76 -465 -96 -138 -17 -582 -17 -720 0
-379 48 -740 166 -1074 353 -119 67 -276 168 -276 178 0 3 67 35 148 71 359
158 1005 493 1442 747 304 176 431 263 531 363 90 90 125 147 135 223 21 153
-180 294 -531 372 -490 108 -769 200 -798 262 -27 60 66 88 488 144 301 40
521 57 510 39z"/>
</g>
</svg>
