<?xml version="1.0" encoding="UTF-8"?>
<svg width="160px" height="46px" viewBox="0 0 160 46" version="1.1" xmlns="http://www.w3.org/2000/svg" xmlns:xlink="http://www.w3.org/1999/xlink">
    <!-- Generator: Sketch 41 (35326) - http://www.bohemiancoding.com/sketch -->
    <title>appstore</title>
    <desc>Created with Sketch.</desc>
    <defs>
        <rect id="path-1" x="0" y="0" width="160" height="46" rx="4.30976437"></rect>
        <mask id="mask-2" maskContentUnits="userSpaceOnUse" maskUnits="objectBoundingBox" x="0" y="0" width="160" height="46" fill="white">
            <use xlink:href="#path-1"></use>
        </mask>
        <mask id="mask-3" maskContentUnits="userSpaceOnUse" maskUnits="objectBoundingBox" x="0" y="0" width="160" height="46" fill="white">
            <use xlink:href="#path-1"></use>
        </mask>
    </defs>
    <g id="Main" stroke="none" stroke-width="1" fill="none" fill-rule="evenodd">
        <g id="13-inch-Retina-Macbook-Pro" transform="translate(-341.000000, -694.000000)">
            <g id="Info-Section" transform="translate(288.000000, 573.000000)">
                <g id="Download-Now" transform="translate(0.000000, 10.000000)">
                    <g id="appstore" transform="translate(53.000000, 111.000000)">
                        <g id="backfround-copy">
                            <use stroke="#A6A6A6" mask="url(#mask-2)" stroke-width="2.15488219" fill="#000000" fill-rule="evenodd" xlink:href="#path-1"></use>
                            <use stroke="#8F8F8F" mask="url(#mask-3)" stroke-width="1.07744109" xlink:href="#path-1"></use>
                        </g>
                        <path d="M59.8785431,35.3271462 L62.5004923,35.3271462 L56.7608471,19.5351789 L54.1058481,19.5351789 L48.3662029,35.3271462 L50.9000194,35.3271462 L52.3652263,31.1356538 L58.4243527,31.1356538 L59.8785431,35.3271462 Z M55.3066568,22.4024661 L55.4939389,22.4024661 L57.7964069,29.0782111 L52.9931721,29.0782111 L55.3066568,22.4024661 Z M69.4526343,23.2123106 C67.8221785,23.2123106 66.4120545,24.0221551 65.6849594,25.3791917 L65.5086939,25.3791917 L65.5086939,23.4092998 L63.228259,23.4092998 L63.228259,39.1903232 L65.5968266,39.1903232 L65.5968266,33.5214119 L65.7841087,33.5214119 C66.4120545,34.779954 67.7670955,35.5241354 69.4746675,35.5241354 C72.5042307,35.5241354 74.4321346,33.1493212 74.4321346,29.3627511 C74.4321346,25.5761809 72.5042307,23.2123106 69.4526343,23.2123106 L69.4526343,23.2123106 Z M68.7806221,33.4119734 C66.7976353,33.4119734 65.5527602,31.8579475 65.5527602,29.3736949 C65.5527602,26.8784984 66.7976353,25.3244725 68.7916387,25.3244725 C70.7966587,25.3244725 71.9974674,26.8456669 71.9974674,29.3627511 C71.9974674,31.8907791 70.7966587,33.4119734 68.7806221,33.4119734 L68.7806221,33.4119734 Z M81.7368076,23.2123106 C80.1063518,23.2123106 78.6962278,24.0221551 77.9691326,25.3791917 L77.7928671,25.3791917 L77.7928671,23.4092998 L75.5124323,23.4092998 L75.5124323,39.1903232 L77.8809999,39.1903232 L77.8809999,33.5214119 L78.068282,33.5214119 C78.6962278,34.779954 80.0512688,35.5241354 81.7588408,35.5241354 C84.788404,35.5241354 86.7163079,33.1493212 86.7163079,29.3627511 C86.7163079,25.5761809 84.788404,23.2123106 81.7368076,23.2123106 L81.7368076,23.2123106 Z M81.0647954,33.4119734 C79.0818086,33.4119734 77.8369335,31.8579475 77.8369335,29.3736949 C77.8369335,26.8784984 79.0818086,25.3244725 81.075812,25.3244725 C83.080832,25.3244725 84.2816407,26.8456669 84.2816407,29.3627511 C84.2816407,31.8907791 83.080832,33.4119734 81.0647954,33.4119734 L81.0647954,33.4119734 Z M91.730201,31.0809346 C91.9064665,33.9044464 94.2750341,35.7101807 97.800344,35.7101807 C101.568019,35.7101807 103.92557,33.8168957 103.92557,30.7963946 C103.92557,28.4215804 102.581546,27.1083191 99.3206339,26.3531939 L97.5689955,25.926384 C95.4978759,25.4448548 94.6606148,24.799168 94.6606148,23.671952 C94.6606148,22.2492523 95.9605729,21.3190255 97.9105099,21.3190255 C99.7612976,21.3190255 101.039222,22.2273646 101.270571,23.6828959 L103.672188,23.6828959 C103.528973,21.0235417 101.171422,19.1521444 97.9435597,19.1521444 C94.4733327,19.1521444 92.1598481,21.0235417 92.1598481,23.8361097 C92.1598481,26.1562047 93.4708227,27.5351291 96.3461536,28.2027036 L98.39524,28.6951766 C100.499409,29.1876495 101.424803,29.9099433 101.424803,31.1137661 C101.424803,32.5145782 99.9706129,33.5323557 97.9876261,33.5323557 C95.8614235,33.5323557 94.3852,32.5802413 94.1758847,31.0809346 L91.730201,31.0809346 Z M105.964311,20.5201249 L105.964311,23.464019 L103.992341,23.464019 L103.992341,25.4448548 L105.964311,25.4448548 L105.964311,32.175319 C105.964311,34.4735263 107.010888,35.3928092 109.643854,35.3928092 C110.10655,35.3928092 110.536198,35.33809 110.910762,35.272427 L110.910762,33.3134788 C110.580264,33.3463104 110.392982,33.368198 110.029434,33.368198 C108.850659,33.368198 108.332879,32.8210058 108.332879,31.5734076 L108.332879,25.4448548 L111.020928,25.4448548 L111.020928,23.464019 L108.332879,23.464019 L108.332879,20.5201249 L105.964311,20.5201249 Z M116.893444,33.4666926 C114.833341,33.4666926 113.676598,31.967386 113.676598,29.3627511 C113.676598,26.7800038 114.833341,25.2697533 116.893444,25.2697533 C118.94253,25.2697533 120.110289,26.7800038 120.110289,29.3627511 C120.110289,31.9564421 118.94253,33.4666926 116.893444,33.4666926 L116.893444,33.4666926 Z M116.893444,35.5569669 C120.39672,35.5569669 122.544956,33.2259281 122.544956,29.3627511 C122.544956,25.5214617 120.385704,23.179479 116.893444,23.179479 C113.390167,23.179479 111.230915,25.5214617 111.230915,29.3627511 C111.230915,33.2259281 113.37915,35.5569669 116.893444,35.5569669 L116.893444,35.5569669 Z M123.625254,35.3271462 L125.993821,35.3271462 L125.993821,28.2902543 C125.993821,26.6158461 127.26073,25.4886302 129.045418,25.4886302 C129.442015,25.4886302 130.16911,25.5652371 130.356392,25.6309002 L130.356392,23.3108052 C130.103011,23.2451421 129.65133,23.2123106 129.309816,23.2123106 C127.74546,23.2123106 126.423468,24.0659304 126.081954,25.2369218 L125.905689,25.2369218 L125.905689,23.4092998 L123.625254,23.4092998 L123.625254,35.3271462 Z M135.689095,25.1822025 C137.440733,25.1822025 138.586459,26.3969693 138.641542,28.2683666 L132.582416,28.2683666 C132.714615,26.4079131 133.937457,25.1822025 135.689095,25.1822025 L135.689095,25.1822025 Z M138.630526,32.109656 C138.189862,33.0398827 137.209385,33.5542434 135.777228,33.5542434 C133.882374,33.5542434 132.659532,32.2300382 132.582416,30.139764 L132.582416,30.0084379 L141.054176,30.0084379 L141.054176,29.1876495 C141.054176,25.4448548 139.03814,23.179479 135.700112,23.179479 C132.318018,23.179479 130.169782,25.5980686 130.169782,29.4065264 C130.169782,33.2149842 132.273951,35.5569669 135.711128,35.5569669 C138.45426,35.5569669 140.371147,34.2437056 140.91096,32.109656 L138.630526,32.109656 Z" id="App-Store" fill="#FFFFFF"></path>
                        <path d="M50.5858891,7.20855387 L50.5858891,14.7285383 L53.3190535,14.7285383 C55.5748321,14.7285383 56.8810854,13.3475294 56.8810854,10.945095 C56.8810854,8.57914008 55.5643401,7.20855387 53.3190535,7.20855387 L50.5858891,7.20855387 Z M51.7609924,8.27167017 L53.1879035,8.27167017 C54.7564566,8.27167017 55.6849981,9.26182751 55.6849981,10.960729 C55.6849981,12.6856874 54.7721946,13.665422 53.1879035,13.665422 L51.7609924,13.665422 L51.7609924,8.27167017 Z M61.0159801,13.842608 C60.0349787,13.842608 59.484149,13.1286525 59.484149,11.8883501 C59.484149,10.6584705 60.0349787,9.93930358 61.0159801,9.93930358 C61.9917355,9.93930358 62.5478112,10.6584705 62.5478112,11.8883501 C62.5478112,13.1234411 61.9917355,13.842608 61.0159801,13.842608 L61.0159801,13.842608 Z M61.0159801,14.8379767 C62.6842071,14.8379767 63.7071765,13.7279582 63.7071765,11.8883501 C63.7071765,10.0591647 62.6789611,8.94393489 61.0159801,8.94393489 C59.3477531,8.94393489 58.3195377,10.0591647 58.3195377,11.8883501 C58.3195377,13.7279582 59.3425071,14.8379767 61.0159801,14.8379767 L61.0159801,14.8379767 Z M72.5477305,9.05337333 L71.4198412,9.05337333 L70.4021178,13.3840088 L70.3129358,13.3840088 L69.1378325,9.05337333 L68.0571572,9.05337333 L66.8820538,13.3840088 L66.7981179,13.3840088 L65.7751485,9.05337333 L64.6315212,9.05337333 L66.2053202,14.7285383 L67.3646856,14.7285383 L68.5397889,10.549032 L68.6289708,10.549032 L69.8093201,14.7285383 L70.9791774,14.7285383 L72.5477305,9.05337333 Z M73.9809369,14.7285383 L75.1088262,14.7285383 L75.1088262,11.4089055 C75.1088262,10.5229753 75.6649019,9.97057171 76.5724593,9.97057171 C77.4118188,9.97057171 77.8210066,10.4239595 77.8210066,11.3359466 L77.8210066,14.7285383 L78.9488959,14.7285383 L78.9488959,11.0545334 C78.9488959,9.70479263 78.2301943,8.94393489 76.9554171,8.94393489 C76.0950736,8.94393489 75.428832,9.32436376 75.1507942,9.95493765 L75.0668582,9.95493765 L75.0668582,9.05337333 L73.9809369,9.05337333 L73.9809369,14.7285383 Z M80.854242,14.7285383 L81.9821313,14.7285383 L81.9821313,6.83854771 L80.854242,6.83854771 L80.854242,14.7285383 Z M86.3530959,13.842608 C85.3720945,13.842608 84.8212649,13.1286525 84.8212649,11.8883501 C84.8212649,10.6584705 85.3720945,9.93930358 86.3530959,9.93930358 C87.3288514,9.93930358 87.884927,10.6584705 87.884927,11.8883501 C87.884927,13.1234411 87.3288514,13.842608 86.3530959,13.842608 L86.3530959,13.842608 Z M86.3530959,14.8379767 C88.021323,14.8379767 89.0442924,13.7279582 89.0442924,11.8883501 C89.0442924,10.0591647 88.016077,8.94393489 86.3530959,8.94393489 C84.6848689,8.94393489 83.6566535,10.0591647 83.6566535,11.8883501 C83.6566535,13.7279582 84.6796229,14.8379767 86.3530959,14.8379767 L86.3530959,14.8379767 Z M92.5339295,13.8790875 C91.9201479,13.8790875 91.4742381,13.5820403 91.4742381,13.0713276 C91.4742381,12.5710376 91.8309659,12.3052585 92.6178654,12.2531449 L94.0133006,12.1645519 L94.0133006,12.6387852 C94.0133006,13.342318 93.383781,13.8790875 92.5339295,13.8790875 L92.5339295,13.8790875 Z M92.2453997,14.8223427 C92.9955772,14.8223427 93.6198509,14.4992387 93.9608407,13.9312011 L94.0500226,13.9312011 L94.0500226,14.7285383 L95.135944,14.7285383 L95.135944,10.8512906 C95.135944,9.65267909 94.3280604,8.94393489 92.8959033,8.94393489 C91.600142,8.94393489 90.6768466,9.56929742 90.5614347,10.5438207 L91.652602,10.5438207 C91.7785059,10.1425464 92.2139237,9.91324681 92.8434433,9.91324681 C93.6146049,9.91324681 94.0133006,10.2519848 94.0133006,10.8512906 L94.0133006,11.3411579 L92.4657315,11.4297509 C91.1070183,11.5131326 90.3411028,12.1020157 90.3411028,13.1234411 C90.3411028,14.1605007 91.1437403,14.8223427 92.2453997,14.8223427 L92.2453997,14.8223427 Z M99.0977208,14.8223427 C99.8846204,14.8223427 100.550862,14.4523365 100.891852,13.8321853 L100.981034,13.8321853 L100.981034,14.7285383 L102.061709,14.7285383 L102.061709,6.83854771 L100.93382,6.83854771 L100.93382,9.95493765 L100.849884,9.95493765 C100.54037,9.32957512 99.8793744,8.95956895 99.0977208,8.95956895 C97.6550717,8.95956895 96.7265302,10.0956442 96.7265302,11.8883501 C96.7265302,13.6862674 97.6445797,14.8223427 99.0977208,14.8223427 L99.0977208,14.8223427 Z M99.4177266,9.96536035 C100.362006,9.96536035 100.954804,10.710584 100.954804,11.8935615 C100.954804,13.0817503 100.367252,13.8165513 99.4177266,13.8165513 C98.4629552,13.8165513 97.8911415,13.092173 97.8911415,11.8883501 C97.8911415,10.69495 98.4682012,9.96536035 99.4177266,9.96536035 L99.4177266,9.96536035 Z M109.639027,13.842608 C108.658026,13.842608 108.107196,13.1286525 108.107196,11.8883501 C108.107196,10.6584705 108.658026,9.93930358 109.639027,9.93930358 C110.614782,9.93930358 111.170858,10.6584705 111.170858,11.8883501 C111.170858,13.1234411 110.614782,13.842608 109.639027,13.842608 L109.639027,13.842608 Z M109.639027,14.8379767 C111.307254,14.8379767 112.330223,13.7279582 112.330223,11.8883501 C112.330223,10.0591647 111.302008,8.94393489 109.639027,8.94393489 C107.9708,8.94393489 106.942585,10.0591647 106.942585,11.8883501 C106.942585,13.7279582 107.965554,14.8379767 109.639027,14.8379767 L109.639027,14.8379767 Z M113.952286,14.7285383 L115.080175,14.7285383 L115.080175,11.4089055 C115.080175,10.5229753 115.636251,9.97057171 116.543808,9.97057171 C117.383168,9.97057171 117.792355,10.4239595 117.792355,11.3359466 L117.792355,14.7285383 L118.920245,14.7285383 L118.920245,11.0545334 C118.920245,9.70479263 118.201543,8.94393489 116.926766,8.94393489 C116.066422,8.94393489 115.400181,9.32436376 115.122143,9.95493765 L115.038207,9.95493765 L115.038207,9.05337333 L113.952286,9.05337333 L113.952286,14.7285383 Z M124.37818,7.67757577 L124.37818,9.0794301 L123.439146,9.0794301 L123.439146,10.0226853 L124.37818,10.0226853 L124.37818,13.2276682 C124.37818,14.3220526 124.87655,14.7598064 126.130343,14.7598064 C126.350675,14.7598064 126.555269,14.7337496 126.733632,14.7024815 L126.733632,13.7696491 C126.576253,13.7852831 126.487071,13.7957058 126.313953,13.7957058 C125.752631,13.7957058 125.506069,13.5351381 125.506069,12.9410437 L125.506069,10.0226853 L126.786092,10.0226853 L126.786092,9.0794301 L125.506069,9.0794301 L125.506069,7.67757577 L124.37818,7.67757577 Z M128.392417,14.7285383 L129.520306,14.7285383 L129.520306,11.4141169 C129.520306,10.5542434 130.09212,9.97578306 131.015415,9.97578306 C131.865267,9.97578306 132.290192,10.4343823 132.290192,11.3411579 L132.290192,14.7285383 L133.418082,14.7285383 L133.418082,11.0649561 C133.418082,9.71521534 132.683642,8.94914624 131.398373,8.94914624 C130.538029,8.94914624 129.877034,9.32957512 129.598996,9.96536035 L129.509814,9.96536035 L129.509814,6.83854771 L128.392417,6.83854771 L128.392417,14.7285383 Z M137.621174,9.89761275 C138.455288,9.89761275 139.000872,10.4760731 139.027102,11.3672147 L136.141803,11.3672147 C136.204755,10.4812844 136.787061,9.89761275 137.621174,9.89761275 L137.621174,9.89761275 Z M139.021856,13.1964001 C138.812016,13.6393652 138.345122,13.8842989 137.663142,13.8842989 C136.760831,13.8842989 136.178525,13.253725 136.141803,12.2583563 L136.141803,12.19582 L140.175975,12.19582 L140.175975,11.8049685 C140.175975,10.0226853 139.215958,8.94393489 137.62642,8.94393489 C136.015899,8.94393489 134.99293,10.0956442 134.99293,11.9091955 C134.99293,13.7227469 135.994915,14.8379767 137.631666,14.8379767 C138.93792,14.8379767 139.850723,14.2126142 140.107777,13.1964001 L139.021856,13.1964001 Z" id="Download-on-the" fill="#FFFFFF"></path>
                        <g id="logo_apple" transform="translate(13.966942, 7.150812)" fill="#FFFFFF">
                            <path d="M20.7721484,16.0684329 C20.7375737,12.251247 23.9184461,10.3941737 24.0638983,10.3077155 C22.2624372,7.69857484 19.4702322,7.34208308 18.489026,7.31365848 C16.1439076,7.06849638 13.8691308,8.70764786 12.6745153,8.70764786 C11.4560552,8.70764786 9.61644268,7.33734564 7.63376247,7.37761382 C5.08238806,7.41669763 2.69554154,8.88411721 1.38647186,11.162822 C-1.31512366,15.8090585 0.699746788,22.6368824 3.28808036,26.3924817 C4.58284326,28.232974 6.09578444,30.2854664 8.07608019,30.2132206 C10.0134556,30.135053 10.7371399,28.9862257 13.0751049,28.9862257 C15.3916098,28.9862257 16.0711815,30.2132206 18.0908209,30.1658463 C20.1700718,30.135053 21.4791415,28.3194321 22.7285996,26.4623588 C24.2248495,24.3565702 24.825734,22.2780219 24.8495786,22.1714297 C24.8018893,22.1560331 20.8126843,20.6436079 20.7721484,16.0684329" id="Fill-2"></path>
                            <path d="M16.9570091,4.84308768 C17.9990191,3.54858437 18.7119732,1.78744401 18.5140629,0.000247776997 C17.0058906,0.0665718255 15.1197811,1.03656104 14.0336587,2.30263975 C13.0727204,3.41830499 12.2143141,5.24695376 12.4360691,6.96664159 C14.1302294,7.09218354 15.8696944,6.1174569 16.9570091,4.84308768" id="Fill-3"></path>
                        </g>
                    </g>
                </g>
            </g>
        </g>
    </g>
</svg>