<?xml version="1.0" encoding="UTF-8"?>
<svg width="181px" height="27px" viewBox="0 0 181 27" version="1.1" xmlns="http://www.w3.org/2000/svg" xmlns:xlink="http://www.w3.org/1999/xlink">
    <!-- Generator: Sketch 41 (35326) - http://www.bohemiancoding.com/sketch -->
    <title>lr-logo</title>
    <desc>Created with Sketch.</desc>
    <defs>
        <path d="M8.98748276,12.5869649 C9.76546552,12.2425789 10.4412414,11.7784561 11.0166034,11.1936842 C11.5917414,10.6084561 12.0480862,9.92014035 12.3863103,9.12896491 C12.7238621,8.33733333 12.8933103,7.49415789 12.8933103,6.59966667 C12.8933103,5.7047193 12.7238621,4.86770175 12.3863103,4.08770175 C12.0478621,3.30747368 11.5917414,2.62508772 11.0166034,2.04031579 C10.4414655,1.45531579 9.76546552,0.990736842 8.98748276,0.646350877 C8.2095,0.302421053 7.38086207,0.13022807 6.5017931,0.13022807 L0.110724138,0.13022807 L0.110724138,25.9379649 L2.78155172,25.9379649 L2.78155172,19.9506667 C3.97665517,21.7859474 5.44789655,23.2426316 7.19505172,24.3204912 C8.94265517,25.3990351 10.8417759,25.9379649 12.8930862,25.9379649 L12.8930862,23.2198246 C11.675569,23.2198246 10.5147586,22.9614211 9.40975862,22.4452982 C8.3052069,21.9294035 7.319,21.2239825 6.45136207,20.3294912 C5.58282759,19.4345439 4.84474138,18.3680877 4.2362069,17.1289825 C3.62767241,15.8901053 3.21010345,14.5485965 2.98462069,13.1030877 L6.50156897,13.1030877 C7.38086207,13.1030877 8.2095,12.9311228 8.98748276,12.5869649 Z M2.78155172,10.419386 L2.78155172,2.84905263 L6.5017931,2.84905263 C7.02044828,2.84905263 7.50525862,2.9464386 7.95555172,3.14166667 C8.40696552,3.3364386 8.80122414,3.60624561 9.13967241,3.95017544 C9.47812069,4.29410526 9.7482069,4.69596491 9.95082759,5.15415789 C10.1538966,5.61349123 10.2558793,6.0947193 10.2558793,6.59966667 C10.2558793,7.12696491 10.1538966,7.62073684 9.95082759,8.07915789 C9.7482069,8.53780702 9.47812069,8.9394386 9.13967241,9.28359649 C8.80122414,9.62729825 8.40674138,9.90257895 7.95555172,10.1092105 C7.50503448,10.315614 7.02044828,10.4191579 6.5017931,10.4191579 L2.78155172,10.4191579 L2.78155172,10.419386 Z" id="path-1"></path>
        <path d="M5.75451724,5.82536842 C6.66765517,4.8964386 7.73903448,4.16798246 8.96731034,3.64022807 C10.1960345,3.11292982 11.5090345,2.84905263 12.9076552,2.84905263 L12.9076552,0.13045614 C11.1481724,0.13045614 9.49694828,0.468912281 7.95308621,1.14559649 C6.40855172,1.82273684 5.05587931,2.74573684 3.89462069,3.91550877 C2.73403448,5.08573684 1.82134483,6.45073684 1.15587931,8.01050877 C0.490862069,9.57050877 0.158241379,11.245 0.158241379,13.0342105 C0.158241379,14.8236491 0.490862069,16.4985965 1.15587931,18.0581404 C1.82134483,19.6185965 2.72843103,20.9833684 3.87825862,22.1531404 C5.02786207,23.3233684 6.38008621,24.2463684 7.93627586,24.9232807 C9.49134483,25.5995088 11.1481724,25.9379649 12.9076552,25.9379649 L12.9076552,23.2198246 C11.5090345,23.2198246 10.1960345,22.9557193 8.96731034,22.4277368 C7.73903448,21.9006667 6.66765517,21.1724386 5.75451724,20.2432807 C4.84182759,19.3141228 4.11987931,18.2360351 3.59068966,17.0083333 C3.06105172,15.7810877 2.79612069,14.4564561 2.79612069,13.0339825 C2.79612069,11.6347719 3.06105172,10.315614 3.59068966,9.07673684 C4.11987931,7.83854386 4.84182759,6.75429825 5.75451724,5.82536842 Z" id="path-3"></path>
        <polygon id="path-5" points="0.00134482759 25.938193 12.7837069 25.938193 12.7837069 23.2200526 2.67262069 23.2200526 2.67262069 15.684386 10.281431 15.684386 10.281431 12.9655614 2.67262069 12.9655614 2.67262069 2.84905263 12.7837069 2.84905263 12.7837069 0.13045614 0.00134482759 0.13045614"></polygon>
        <path d="M9.02939655,12.5869649 C9.80737931,12.2425789 10.4840517,11.7784561 11.0585172,11.1936842 C11.6336552,10.6084561 12.0904483,9.92014035 12.4282241,9.12896491 C12.7666724,8.33733333 12.9356724,7.49415789 12.9356724,6.59966667 C12.9356724,5.7047193 12.7666724,4.86770175 12.4282241,4.08770175 C12.0902241,3.30747368 11.6336552,2.62508772 11.0585172,2.04031579 C10.4842759,1.45531579 9.80737931,0.990736842 9.02939655,0.646350877 C8.25186207,0.302421053 7.42322414,0.13022807 6.54415517,0.13022807 L0.152637931,0.13022807 L0.152637931,25.9379649 L2.82436207,25.9379649 L2.82436207,19.9506667 C4.01946552,21.7859474 5.49003448,23.2426316 7.23718966,24.3204912 C8.9847931,25.3990351 10.8839138,25.9379649 12.9356724,25.9379649 L12.9356724,23.2198246 C11.7181552,23.2198246 10.5573448,22.9614211 9.45234483,22.4452982 C8.3477931,21.9294035 7.36203448,21.2239825 6.4935,20.3294912 C5.62586207,19.4345439 4.88732759,18.3680877 4.2787931,17.1289825 C3.66981034,15.8901053 3.25268966,14.5485965 3.0272069,13.1030877 L6.54415517,13.1030877 C7.42322414,13.1030877 8.25186207,12.9311228 9.02939655,12.5869649 Z M2.82458621,10.419386 L2.82458621,2.84905263 L6.54437931,2.84905263 C7.06258621,2.84905263 7.54739655,2.9464386 7.99858621,3.14166667 C8.45,3.3364386 8.84381034,3.60624561 9.18225862,3.95017544 C9.52025862,4.29410526 9.7907931,4.69596491 9.99341379,5.15415789 C10.1964828,5.61349123 10.2980172,6.0947193 10.2980172,6.59966667 C10.2980172,7.12696491 10.1964828,7.62073684 9.99341379,8.07915789 C9.7907931,8.53780702 9.52025862,8.9394386 9.18225862,9.28359649 C8.84381034,9.62729825 8.44977586,9.90257895 7.99858621,10.1092105 C7.54717241,10.315614 7.06258621,10.4191579 6.54437931,10.4191579 L2.82458621,10.4191579 L2.82458621,10.419386 Z" id="path-7"></path>
        <path d="M0.123986667,0.128206897 L0.123986667,19.4038448 C0.123986667,20.2838103 0.294893333,21.112 0.63716,21.8895345 C0.978973333,22.6675172 1.44069333,23.3437414 2.02232,23.9186552 C2.60349333,24.4937931 3.28712,24.9505862 4.07388,25.2883621 C4.86064,25.6261379 5.69817333,25.7958103 6.58761333,25.7958103 C7.6364,25.7958103 8.61129333,25.5584483 9.51116,25.0852931 C10.4117067,24.6125862 11.1585733,23.9807414 11.75176,23.192 C12.1160133,23.6201034 12.5491733,24.0036034 13.0510133,24.3411552 C13.4839467,24.6345517 14.0138933,24.8992586 14.6413067,25.1361724 C15.2682667,25.3730862 16.0035733,25.4912069 16.8467733,25.4912069 L16.8467733,22.819931 C16.32272,22.819931 15.8267733,22.724 15.3593867,22.5323621 C14.8915467,22.3409483 14.4815067,22.0757931 14.1281333,21.7377931 C13.77476,21.3988966 13.4950533,21.0048621 13.2906,20.5541207 C13.08524,20.1031552 12.9821067,19.618569 12.9821067,19.1003621 L12.9821067,0.128655172 L10.3151467,0.128655172 L10.3151467,19.4042931 C10.3151467,19.9233966 10.2181333,20.4077586 10.0247867,20.8585 C9.83098667,21.3099138 9.56306667,21.7037241 9.2208,22.0417241 C8.87853333,22.3806207 8.4796,22.6448793 8.02377333,22.8371897 C7.56772,23.0281552 7.08877333,23.1243103 6.58761333,23.1243103 C6.06310667,23.1243103 5.56716,23.027931 5.09977333,22.8371897 C4.63261333,22.6451034 4.22801333,22.3806207 3.88552,22.0417241 C3.54370667,21.7037241 3.27601333,21.3096897 3.08198667,20.8585 C2.88841333,20.4075345 2.79162667,19.9233966 2.79162667,19.4042931 L2.79162667,0.128655172 L0.123986667,0.128655172 L0.123986667,0.128206897 Z" id="path-9"></path>
        <path d="M7.93661404,25.7209322 C9.49638596,26.4341441 11.1713333,26.791322 12.9600877,26.791322 C14.7497544,26.791322 16.4242456,26.4341441 17.9842456,25.7209322 C19.5440175,25.0072627 20.9090175,24.0405254 22.0787895,22.8209492 C23.2490175,21.6013729 24.1724737,20.1914237 24.8489298,18.5920169 C25.525386,16.9926102 25.8638421,15.2952712 25.8638421,13.5 C25.8638421,11.7047288 25.525614,10.0076186 24.8489298,8.40798305 C24.1722456,6.80834746 23.2487895,5.39862712 22.0787895,4.17927966 C20.9090175,2.95901695 19.5440175,1.99273729 17.9842456,1.27929661 C16.4242456,0.565855932 14.7495263,0.20890678 12.9600877,0.20890678 C11.1711053,0.20890678 9.49615789,0.565855932 7.93661404,1.27929661 C6.37707018,1.99273729 5.01161404,2.95901695 3.84184211,4.17927966 C2.67184211,5.39862712 1.74838596,6.80834746 1.07170175,8.40798305 C0.395017544,10.0076186 0.0563333333,11.7047288 0.0563333333,13.5 C0.0563333333,15.2952712 0.395017544,16.9926102 1.07170175,18.5920169 C1.74838596,20.1914237 2.67184211,21.6013729 3.84184211,22.8209492 C5.01161404,24.0405254 6.37684211,25.0072627 7.93661404,25.7209322 Z M2.77492982,13.5 C2.77492982,12.0962288 3.03880702,10.755839 3.5665614,9.47791525 C4.09385965,8.20113559 4.82277193,7.0790339 5.75147368,6.11229661 C6.68063158,5.14533051 7.7587193,4.37445763 8.98619298,3.79967797 C10.2136667,3.22398305 11.5380702,2.93636441 12.9603158,2.93636441 C14.3599825,2.93636441 15.6789123,3.22421186 16.9177895,3.79967797 C18.1566667,4.37468644 19.2404561,5.14555932 20.169614,6.11229661 C21.0985439,7.0790339 21.8272281,8.20113559 22.3547544,9.47791525 C22.8822807,10.755839 23.1461579,12.0962288 23.1461579,13.5 C23.1461579,14.9271102 22.8825088,16.2793983 22.3547544,17.556178 C21.8272281,18.8334153 21.0985439,19.9555169 20.169614,20.9222542 C19.2404561,21.8889915 18.1566667,22.6539153 16.9177895,23.2183983 C15.6789123,23.7819661 14.3599825,24.0638644 12.9603158,24.0638644 C11.5382982,24.0638644 10.2136667,23.7819661 8.98619298,23.2183983 C7.7587193,22.6539153 6.68085965,21.8887627 5.75147368,20.9222542 C4.82277193,19.9555169 4.09385965,18.8334153 3.5665614,17.556178 C3.03880702,16.2791695 2.77492982,14.9268814 2.77492982,13.5 Z" id="path-11"></path>
        <polygon id="path-13" points="0.0643275862 0.13045614 0.0643275862 25.938193 12.9148276 25.938193 12.9148276 23.2200526 2.80351724 23.2200526 2.80351724 0.13045614"></polygon>
        <polygon id="path-15" points="10.14 0.13045614 0.0286896552 25.938193 2.70018966 25.938193 12.845569 0.13045614"></polygon>
        <path d="M6.50896552,13.1030877 C7.38803448,13.1030877 8.21667241,12.9311228 8.99465517,12.5869649 C9.77218966,12.2425789 10.4484138,11.7784561 11.0237759,11.1936842 C11.5984655,10.6084561 12.0552586,9.92014035 12.3930345,9.12896491 C12.7314828,8.33733333 12.9004828,7.49415789 12.9004828,6.59966667 C12.9004828,5.7047193 12.7314828,4.86770175 12.3930345,4.08770175 C12.0550345,3.30747368 11.5984655,2.62508772 11.0237759,2.04031579 C10.4486379,1.45531579 9.77218966,0.990736842 8.99465517,0.646350877 C8.21667241,0.302421053 7.38803448,0.13022807 6.50896552,0.13022807 L0.117448276,0.13022807 L0.117448276,25.9379649 L2.78917241,25.9379649 L2.78917241,13.1028596 L6.50896552,13.1028596 L6.50896552,13.1030877 Z M2.78917241,2.84905263 L6.50896552,2.84905263 C7.02762069,2.84905263 7.51243103,2.9464386 7.96317241,3.14166667 C8.41391379,3.3364386 8.80839655,3.60624561 9.14662069,3.95017544 C9.48484483,4.29410526 9.75560345,4.69596491 9.95822414,5.15415789 C10.161069,5.61349123 10.2621552,6.0947193 10.2621552,6.59966667 C10.2621552,7.12696491 10.161069,7.62073684 9.95822414,8.07915789 C9.75560345,8.53780702 9.48484483,8.9394386 9.14662069,9.28359649 C8.80839655,9.62729825 8.41368966,9.90257895 7.96317241,10.1092105 C7.5122069,10.315614 7.02762069,10.4191579 6.50896552,10.4191579 L2.78917241,10.4191579 L2.78917241,2.84905263 Z" id="path-17"></path>
        <path d="M8.00506087,25.7209322 C9.55149565,26.4341441 11.2116522,26.791322 12.9850783,26.791322 C14.7589565,26.791322 16.418887,26.4341441 17.9655478,25.7209322 C19.5119826,25.0072627 20.864887,24.0405254 22.024487,22.8209492 C23.1845391,21.6013729 24.099513,20.1914237 24.7705391,18.5920169 C25.4415652,16.9926102 25.7768522,15.2952712 25.7768522,13.5 C25.7768522,11.7047288 25.4415652,10.0076186 24.7705391,8.40798305 C24.099513,6.80834746 23.1845391,5.39862712 22.024487,4.17927966 C20.864887,2.95901695 19.5119826,1.99273729 17.9655478,1.27929661 C16.418887,0.565855932 14.7587304,0.20890678 12.9850783,0.20890678 C11.2114261,0.20890678 9.55126957,0.565855932 8.00506087,1.27929661 C6.45885217,1.99273729 5.10572174,2.95901695 3.94612174,4.17927966 C2.78606957,5.39862712 1.87064348,6.80834746 1.20006957,8.40798305 C0.529495652,10.0076186 0.193756522,11.7047288 0.193756522,13.5 C0.193756522,15.2952712 0.529269565,16.9926102 1.20006957,18.5920169 C1.87086957,20.1914237 2.78629565,21.6013729 3.94612174,22.8209492 C5.10572174,24.0405254 6.45862609,25.0072627 8.00506087,25.7209322 Z M2.88848696,13.5 C2.88848696,12.0962288 3.14984348,10.755839 3.6730087,9.47791525 C4.19594783,8.20113559 4.91806957,7.0790339 5.83892174,6.11229661 C6.76022609,5.14533051 7.82893913,4.37445763 9.04551304,3.79967797 C10.262087,3.22398305 11.5752,2.93636441 12.9853043,2.93636441 C14.3725739,2.93636441 15.6802609,3.22421186 16.9083652,3.79967797 C18.1364696,4.37468644 19.2108348,5.14555932 20.131913,6.11229661 C21.0527652,7.0790339 21.775113,8.20113559 22.2978261,9.47791525 C22.8209913,10.755839 23.0825739,12.0962288 23.0825739,13.5 C23.0825739,14.9271102 22.8212174,16.2793983 22.2978261,17.556178 C21.775113,18.8334153 21.0527652,19.9555169 20.131913,20.9222542 C19.2108348,21.8889915 18.1364696,22.6539153 16.9083652,23.2183983 C15.6802609,23.7819661 14.3725739,24.0638644 12.9853043,24.0638644 C11.5754261,24.0638644 10.262087,23.7819661 9.04551304,23.2183983 C7.82893913,22.6539153 6.76045217,21.8887627 5.83892174,20.9222542 C4.91806957,19.9555169 4.19594783,18.8334153 3.6730087,17.556178 C3.15006957,16.2791695 2.88848696,14.9268814 2.88848696,13.5 Z" id="path-19"></path>
    </defs>
    <g id="Main" stroke="none" stroke-width="1" fill="none" fill-rule="evenodd">
        <g id="13-inch-Retina-Macbook-Pro" transform="translate(-609.000000, -1792.000000)">
            <g id="Footer" transform="translate(190.000000, 1717.000000)">
                <g id="lr-logo" transform="translate(419.000000, 75.000000)">
                    <g id="Group-3" transform="translate(108.000000, 1.000000)">
                        <mask id="mask-2" fill="white">
                            <use xlink:href="#path-1"></use>
                        </mask>
                        <g id="Clip-2"></g>
                        <polygon id="Fill-1" fill="#000000" mask="url(#mask-2)" points="-1.00996552 -1.01012281 14.014 -1.01012281 14.014 27.0783158 -1.00996552 27.0783158"></polygon>
                    </g>
                    <g id="Group-6" transform="translate(136.000000, 1.000000)">
                        <mask id="mask-4" fill="white">
                            <use xlink:href="#path-3"></use>
                        </mask>
                        <g id="Clip-5"></g>
                        <polygon id="Fill-4" fill="#000000" mask="url(#mask-4)" points="-0.962448276 -1.00989474 14.0283448 -1.00989474 14.0283448 27.0783158 -0.962448276 27.0783158"></polygon>
                    </g>
                    <g id="Group-9" transform="translate(123.000000, 1.000000)">
                        <mask id="mask-6" fill="white">
                            <use xlink:href="#path-5"></use>
                        </mask>
                        <g id="Clip-8"></g>
                        <polygon id="Fill-7" fill="#000000" mask="url(#mask-6)" points="-1.11934483 -1.00989474 13.9043966 -1.00989474 13.9043966 27.0785439 -1.11934483 27.0785439"></polygon>
                    </g>
                    <g id="Group-12" transform="translate(168.000000, 1.000000)">
                        <mask id="mask-8" fill="white">
                            <use xlink:href="#path-7"></use>
                        </mask>
                        <g id="Clip-11"></g>
                        <polygon id="Fill-10" fill="#000000" mask="url(#mask-8)" points="-0.968051724 -1.01012281 14.0563621 -1.01012281 14.0563621 27.0783158 -0.968051724 27.0783158"></polygon>
                    </g>
                    <g id="Group-15" transform="translate(150.000000, 1.000000)">
                        <mask id="mask-10" fill="white">
                            <use xlink:href="#path-9"></use>
                        </mask>
                        <g id="Clip-14"></g>
                        <polygon id="Fill-13" fill="#000000" mask="url(#mask-10)" points="-1.00934667 -0.992482759 17.9801067 -0.992482759 17.9801067 26.9165 -1.00934667 26.9165"></polygon>
                    </g>
                    <g id="Group-18" transform="translate(12.000000, 0.000000)">
                        <mask id="mask-12" fill="white">
                            <use xlink:href="#path-11"></use>
                        </mask>
                        <g id="Clip-17"></g>
                        <polygon id="Fill-16" fill="#000000" mask="url(#mask-12)" points="-1.08401754 -0.935161017 27.004193 -0.935161017 27.004193 27.9353898 -1.08401754 27.9353898"></polygon>
                    </g>
                    <g id="Group-21" transform="translate(0.000000, 1.000000)">
                        <mask id="mask-14" fill="white">
                            <use xlink:href="#path-13"></use>
                        </mask>
                        <g id="Clip-20"></g>
                        <polygon id="Fill-19" fill="#000000" mask="url(#mask-14)" points="-1.05636207 -1.00989474 14.0355172 -1.00989474 14.0355172 27.0785439 -1.05636207 27.0785439"></polygon>
                    </g>
                    <g id="Group-24" transform="translate(86.000000, 1.000000)">
                        <mask id="mask-16" fill="white">
                            <use xlink:href="#path-15"></use>
                        </mask>
                        <g id="Clip-23"></g>
                        <polygon id="Fill-22" fill="#000000" mask="url(#mask-16)" points="-1.092 -1.00989474 13.9662586 -1.00989474 13.9662586 27.0785439 -1.092 27.0785439"></polygon>
                    </g>
                    <g id="Group-27" transform="translate(66.000000, 1.000000)">
                        <mask id="mask-18" fill="white">
                            <use xlink:href="#path-17"></use>
                        </mask>
                        <g id="Clip-26"></g>
                        <polygon id="Fill-25" fill="#000000" mask="url(#mask-18)" points="-1.00324138 -1.01012281 14.0211724 -1.01012281 14.0211724 27.0783158 -1.00324138 27.0783158"></polygon>
                    </g>
                    <g id="Group-30" transform="translate(38.000000, 0.000000)">
                        <mask id="mask-20" fill="white">
                            <use xlink:href="#path-19"></use>
                        </mask>
                        <g id="Clip-29"></g>
                        <polygon id="Fill-28" fill="#000000" mask="url(#mask-20)" points="-0.936678261 -0.935161017 26.907287 -0.935161017 26.907287 27.9353898 -0.936678261 27.9353898"></polygon>
                    </g>
                </g>
            </g>
        </g>
    </g>
</svg>