<?xml version="1.0" encoding="UTF-8"?>
<svg width="160px" height="47px" viewBox="0 0 160 47" version="1.1" xmlns="http://www.w3.org/2000/svg" xmlns:xlink="http://www.w3.org/1999/xlink">
    <!-- Generator: Sketch 41.2 (35397) - http://www.bohemiancoding.com/sketch -->
    <title>playstore</title>
    <desc>Created with Sketch.</desc>
    <defs>
        <rect id="path-1" x="0" y="0" width="160" height="46.9141266" rx="5.38720547"></rect>
        <mask id="mask-2" maskContentUnits="userSpaceOnUse" maskUnits="objectBoundingBox" x="0" y="0" width="160" height="46.9141266" fill="white">
            <use xlink:href="#path-1"></use>
        </mask>
        <mask id="mask-3" maskContentUnits="userSpaceOnUse" maskUnits="objectBoundingBox" x="0" y="0" width="160" height="46.9141266" fill="white">
            <use xlink:href="#path-1"></use>
        </mask>
        <linearGradient x1="91.4760101%" y1="4.98145138%" x2="-71.173662%" y2="87.8981111%" id="linearGradient-4">
            <stop stop-color="#00A0FF" offset="0%"></stop>
            <stop stop-color="#00A1FF" offset="0.66%"></stop>
            <stop stop-color="#00BEFF" offset="26.01%"></stop>
            <stop stop-color="#00D2FF" offset="51.22%"></stop>
            <stop stop-color="#00DFFF" offset="76.04%"></stop>
            <stop stop-color="#00E3FF" offset="100%"></stop>
        </linearGradient>
        <linearGradient x1="107.58085%" y1="50.0771761%" x2="-190.70242%" y2="50.0771761%" id="linearGradient-5">
            <stop stop-color="#FFE000" offset="0%"></stop>
            <stop stop-color="#FFBD00" offset="40.87%"></stop>
            <stop stop-color="#FFA500" offset="77.54%"></stop>
            <stop stop-color="#FF9C00" offset="100%"></stop>
        </linearGradient>
        <linearGradient x1="36.2444569%" y1="53.0304191%" x2="-134.598259%" y2="272.104791%" id="linearGradient-6">
            <stop stop-color="#FF3A44" offset="0%"></stop>
            <stop stop-color="#C31162" offset="100%"></stop>
        </linearGradient>
        <linearGradient x1="-68.7931882%" y1="-89.2417499%" x2="7.50813932%" y2="8.63249927%" id="linearGradient-7">
            <stop stop-color="#32A071" offset="0%"></stop>
            <stop stop-color="#2DA771" offset="6.85%"></stop>
            <stop stop-color="#15CF74" offset="47.62%"></stop>
            <stop stop-color="#06E775" offset="80.09%"></stop>
            <stop stop-color="#00F076" offset="100%"></stop>
        </linearGradient>
    </defs>
    <g id="Main" stroke="none" stroke-width="1" fill="none" fill-rule="evenodd">
        <g id="13-inch-Retina-Macbook-Pro" transform="translate(-341.000000, -627.000000)">
            <g id="Info-Section" transform="translate(288.000000, 573.000000)">
                <g id="Download-Now" transform="translate(0.000000, 10.000000)">
                    <g id="playstore" transform="translate(53.000000, 44.000000)">
                        <g id="background">
                            <use stroke="#A6A6A6" mask="url(#mask-2)" stroke-width="2.15488219" fill="#000000" fill-rule="evenodd" xlink:href="#path-1"></use>
                            <use stroke="#8F8F8F" mask="url(#mask-3)" stroke-width="1.07744109" xlink:href="#path-1"></use>
                        </g>
                        <g id="get-it-on" transform="translate(49.065232, 7.904545)" fill="#FFFFFF">
                            <path d="M35.7229321,7.69090909 C37.8622462,7.69090909 39.596503,5.96924045 39.596503,3.84545455 C39.596503,1.72166864 37.8622462,0 35.7229321,0 C33.5836179,0 31.8493611,1.72166864 31.8493611,3.84545455 C31.8493611,5.96924045 33.5836179,7.69090909 35.7229321,7.69090909 Z M35.7229321,6.51590909 C37.2085669,6.51590909 38.4129119,5.32030587 38.4129119,3.84545455 C38.4129119,2.37060322 37.2085669,1.175 35.7229321,1.175 C34.2372972,1.175 33.0329523,2.37060322 33.0329523,3.84545455 C33.0329523,5.32030587 34.2372972,6.51590909 35.7229321,6.51590909 Z" id="o"></path>
                            <path d="M9.46872898,4.27272727 L9.46872898,6.62272727 L12.5891056,6.62272727 L12.5891056,7.47727273 L8.28513786,7.47727273 L8.28513786,7.05 L8.28513786,0.801136364 L8.28513786,0.320454545 L12.5891056,0.320454545 L12.5891056,1.175 L9.46872898,1.175 L9.46872898,3.41818182 L12.266308,3.41818182 L12.266308,4.27272727 L9.46872898,4.27272727 Z" id="e"></path>
                            <path d="M16.7854741,1.175 L16.7854741,7.47727273 L15.601883,7.47727273 L15.601883,1.175 L13.7726967,1.175 L13.7726967,0.320454545 L18.6146604,0.320454545 L18.6146604,1.175 L16.7854741,1.175 Z" id="t"></path>
                            <path d="M27.330195,1.175 L27.330195,7.47727273 L26.1466039,7.47727273 L26.1466039,1.175 L24.3174176,1.175 L24.3174176,0.320454545 L29.1593813,0.320454545 L29.1593813,1.175 L27.330195,1.175 Z" id="t"></path>
                            <rect id="i" x="22.0578346" y="0.320454545" width="1.18359112" height="7.15681818"></rect>
                            <path d="M41.2642905,0.320454545 L40.5648958,0.320454545 L40.5648958,7.47727273 L41.7484869,7.47727273 L41.7484869,1.89146341 L45.1916611,7.47727273 L45.7834566,7.47727273 L46.3752522,7.47727273 L46.3752522,0.320454545 L45.1916611,0.320454545 L45.1916611,5.55715078 L41.9636853,0.320454545 L41.2642905,0.320454545 Z" id="n"></path>
                            <g id="g" transform="translate(0.000000, 0.106818)">
                                <polygon id="Rectangle-1" points="3.85025009 3.4363528 7.09087725 3.4363528 7.05879184 4.4545314 3.85025009 4.4545314"></polygon>
                                <path d="M7.36149944,3.4363528 C7.36160684,3.44894262 7.36166063,3.46155804 7.36166063,3.47419891 C7.71773356,6.06699968 5.93705556,7.55996372 3.80212197,7.5408853 C1.70227001,7.53789947 0,5.85280063 0,3.77044265 C0,1.68808468 1.70226799,0 3.80212197,0 C4.8997258,0 5.82242236,0.380279264 6.4531737,1.0406792 L5.71162745,1.77604688 C5.24910281,1.30708585 4.59217987,1.04999669 3.83420738,1.04999669 C2.31912287,1.04999669 1.09090419,2.26798183 1.09090419,3.77044265 C1.09090419,5.27290347 2.31912287,6.49088862 3.83420738,6.49088862 C5.3492919,6.49088862 6.42497951,5.62229228 6.4227235,3.77044265 C6.42528598,3.65599955 6.42259855,3.5445991 6.41489139,3.4363528 L7.36149944,3.4363528 Z" id="Oval-1"></path>
                            </g>
                        </g>
                        <g id="googleplay" transform="translate(48.527236, 20.509091)" fill="#FFFFFF">
                            <g id="big-P" transform="translate(67.141896, 0.534091)">
                                <path d="M0.537995965,3.75427644e-07 L6.63810557,0 C6.63810557,0 10.1497705,0.59313299 10.1497702,4.59636486 C10.14977,8.59959672 6.63810557,9.19272971 6.63810557,9.19272971 L0.537995965,9.19273009 L0.537995965,3.75427644e-07 Z M1.72158709,2.22362477 L5.86263952,2.22362477 C5.86263952,2.22362477 7.7471419,2.22362477 7.7471419,4.69022148 C7.7471419,7.15681818 5.86263952,7.15681818 5.86263952,7.15681818 L1.72158709,7.15681818 L1.72158709,2.22362477 Z" id="Combined-Shape"></path>
                                <rect id="Rectangle-6" x="0" y="0" width="2.15198386" height="14.9545455"></rect>
                            </g>
                            <rect id="y" x="78.5474109" y="0.534090909" width="2.15198386" height="14.9545455"></rect>
                            <path d="M88.6755098,14.4194006 L88.6755098,15.4838379 L90.8274936,15.4838379 L90.8274936,8.99261588 C90.8276422,8.98846914 90.8277169,8.9842954 90.8277169,8.98009449 C90.8277169,8.1170474 90.19061,5.55454546 86.4482905,5.55454545 C83.4385507,5.55454545 82.4354921,7.60735307 82.4354921,7.60735307 L84.2280064,8.65905318 C84.2280064,8.65905318 84.6607243,7.60735307 86.6201971,7.60735307 C88.0464597,7.60735307 88.5222044,8.6766034 88.6755098,9.25853047 L88.6755098,9.69792128 C88.0503538,9.39628395 86.6976353,8.9212209 84.7662651,9.20633989 C82.0387201,9.60899436 82.2078421,12.1421189 82.2078421,12.3515825 C82.2078421,12.5610461 82.2096286,15.6672232 85.6384595,15.4546298 C87.1351474,15.3618326 88.0827775,14.9048985 88.6755098,14.4194006 Z M88.5217816,11.216222 C88.5217816,11.216222 84.3759553,10.1068882 84.2318417,12.4190219 C84.0877282,14.7311556 88.2091766,13.6209351 88.5774201,11.9818914 C88.57742,11.4606834 88.5217816,11.216222 88.5217816,11.216222 Z" id="a"></path>
                            <path d="M94.8655448,14.9212631 L92.8581036,19.6545455 L95.0100874,19.6545455 L100.832213,5.92674006 L98.6802286,5.92674006 L95.9415367,12.3842156 L93.1809011,5.875 L91.0289173,5.875 L94.8655448,14.9212631 Z" id="y"></path>
                            <path d="M62.3241799,9.37069509 C62.3241799,9.37069509 61.3806463,5.55454545 57.772737,5.55454545 C54.1648277,5.55454545 52.938803,8.77998234 52.938803,10.6848242 C52.938803,12.6618796 54.4834151,15.706159 57.9903599,15.706159 C60.8441746,15.706159 62.2376016,13.4689203 62.2376016,13.4689203 L60.5108089,12.3079735 C60.5108089,12.3079735 59.6062869,13.726004 58.0039613,13.7178982 C55.9576658,13.7075466 55.5181043,12.1630818 55.5181043,12.1630818 L62.3241799,9.37069509 Z M59.7346121,8.5796527 C59.7346121,8.5796527 58.8783133,7.28627199 57.5650537,7.52479997 C54.7870931,8.02936235 55.1366759,10.442712 55.1366759,10.442712 L59.7346121,8.5796527 Z" id="e"></path>
                            <rect id="i" x="49.7108272" y="0.534090909" width="2.27666962" height="14.9231283"></rect>
                            <path d="M46.0675073,5.87887353 L46.0675073,6.81016218 C46.0675073,6.81016218 45.1526155,5.50299629 43.2492001,5.55612202 C40.8728738,5.62244703 38.4129119,7.445802 38.4129119,10.633548 C38.4129119,13.8212941 41.0253668,15.6911573 43.2237628,15.6911543 C45.2514217,15.6911515 46.0677688,14.4227531 46.0677688,14.4227531 L46.0677688,15.4446112 C46.0677688,16.1740185 45.7923399,18.3049011 43.4330155,18.3049039 C41.3612174,18.3049064 40.7717132,16.4636075 40.7717132,16.4636075 L38.838872,17.2705835 C38.838872,17.2705835 39.9358794,20.2582533 43.3325742,20.2582533 C46.729269,20.2582533 48.1720665,17.7187307 48.1720665,15.3129592 L48.1720665,5.89692268 L46.0675073,5.87887353 Z M43.4034586,13.7777035 C44.9381895,13.7777035 46.1823347,12.3820516 46.1823347,10.6604278 C46.1823347,8.93880397 44.9381895,7.5431521 43.4034586,7.5431521 C41.8687276,7.5431521 40.6245824,8.93880397 40.6245824,10.6604278 C40.6245824,12.3820516 41.8687276,13.7777035 43.4034586,13.7777035 Z" id="g"></path>
                            <path d="M32.3451025,15.7022727 C35.1741848,15.7022727 37.4676091,13.4306266 37.4676091,10.6284091 C37.4676091,7.82619158 35.1741848,5.55454545 32.3451025,5.55454545 C29.5160202,5.55454545 27.2225958,7.82619158 27.2225958,10.6284091 C27.2225958,13.4306266 29.5160202,15.7022727 32.3451025,15.7022727 Z M32.311622,13.7125223 C33.9018252,13.7125223 35.1909395,12.3317178 35.1909395,10.6284091 C35.1909395,8.92510041 33.9018252,7.5442959 32.311622,7.5442959 C30.7214189,7.5442959 29.4323046,8.92510041 29.4323046,10.6284091 C29.4323046,12.3317178 30.7214189,13.7125223 32.311622,13.7125223 Z" id="o"></path>
                            <path d="M21.2623856,15.7022727 C24.0914679,15.7022727 26.3848922,13.4306266 26.3848922,10.6284091 C26.3848922,7.82619158 24.0914679,5.55454545 21.2623856,5.55454545 C18.4333033,5.55454545 16.139879,7.82619158 16.139879,10.6284091 C16.139879,13.4306266 18.4333033,15.7022727 21.2623856,15.7022727 Z M21.2289052,13.7125223 C22.8191083,13.7125223 24.1082226,12.3317178 24.1082226,10.6284091 C24.1082226,8.92510041 22.8191083,7.5442959 21.2289052,7.5442959 C19.638702,7.5442959 18.3495877,8.92510041 18.3495877,10.6284091 C18.3495877,12.3317178 19.638702,13.7125223 21.2289052,13.7125223 Z" id="o"></path>
                            <g id="big-g">
                                <polygon id="Rectangle-1" points="8.03530454 7.1631016 14.7983525 7.1631016 14.7313917 9.28550208 8.03530454 9.28550208"></polygon>
                                <path d="M15.3631293,7.1631016 C15.3633534,7.18934518 15.3634657,7.21564212 15.3634657,7.2419921 C16.1065744,12.6467036 12.3903768,15.7587976 7.93486324,15.7190285 C3.5525635,15.7128045 0,12.2002041 0,7.85951426 C0,3.51882439 3.55255928,0 7.93486324,0 C10.2255147,0 12.1511423,0.792694805 13.4674929,2.16930313 L11.9199182,3.70218222 C10.9546493,2.72462966 9.58367973,2.18872549 8.00182411,2.18872549 C4.83990859,2.18872549 2.27666962,4.7276241 2.27666962,7.85951426 C2.27666962,10.9914044 4.83990859,13.530303 8.00182411,13.530303 C11.1637396,13.530303 13.4086529,11.7197078 13.4039447,7.85951426 C13.4092925,7.62095682 13.4036839,7.3887418 13.3875994,7.1631016 L15.3631293,7.1631016 Z" id="Oval-1"></path>
                            </g>
                        </g>
                        <g id="Get_it_on_Google_play" transform="translate(9.773512, 6.232218)">
                            <g id="g10" transform="translate(15.111632, 16.571266) scale(1, -1) translate(-15.111632, -16.571266) translate(0.086132, 0.114766)">
                                <g id="g12" transform="translate(1.057847, 1.258546)">
                                    <g id="g48" fill="url(#linearGradient-4)">
                                        <path d="M1.93360269,29.7284695 C1.5965132,29.3797069 1.40143162,28.8381324 1.40143162,28.1349362 L1.40143162,3.05096411 C1.40143162,2.34776792 1.5965132,1.8047757 1.93360269,1.45601308 L2.01679925,1.37945543 L16.2391069,15.4292019 L16.2391069,15.7609517 L2.01679925,29.8106981 L1.93360269,29.7284695 Z" id="path64"></path>
                                    </g>
                                    <g id="g66" transform="translate(15.778657, 9.924140)" fill="url(#linearGradient-5)">
                                        <path d="M5.19404699,0.819450398 L0.459015475,5.5050621 L0.459015475,5.83681192 L5.19978468,10.5224236 L5.30593201,10.461461 L10.920265,7.30416687 C12.5225159,6.40815882 12.5225159,4.9337152 10.920265,4.03203621 L5.30593201,0.880412971 L5.19404699,0.819450398 Z" id="path78"></path>
                                    </g>
                                    <g id="g80" transform="translate(1.434423, 0.000000)" fill="url(#linearGradient-6)">
                                        <path d="M19.6501656,10.8045527 L14.8032491,15.5950768 L0.49917933,1.45601308 C1.0313504,0.903096719 1.89917653,0.836463209 2.8860598,1.38937957 L19.6501656,10.8045527" id="path88"></path>
                                    </g>
                                    <g id="g90" transform="translate(1.434423, 15.595077)" fill="url(#linearGradient-7)">
                                        <path d="M19.6501656,4.79052404 L2.8860598,14.2056972 C1.89917653,14.7529426 1.0313504,14.6863091 0.49917933,14.1333928 L14.8032491,0 L19.6501656,4.79052404 Z" id="path104"></path>
                                    </g>
                                </g>
                            </g>
                        </g>
                    </g>
                </g>
            </g>
        </g>
    </g>
</svg>